<svg width="18" height="18" viewBox="0 0 18 18" fill="none" xmlns="http://www.w3.org/2000/svg">
<path d="M5.03317 0.666504H3.44984C1.62484 0.666504 0.666504 1.62484 0.666504 3.4415V5.02484C0.666504 6.8415 1.62484 7.79984 3.4415 7.79984H5.02484C6.8415 7.79984 7.79984 6.8415 7.79984 5.02484V3.4415C7.80817 1.62484 6.84984 0.666504 5.03317 0.666504ZM14.5582 0.666504H12.9748C11.1582 0.666504 10.1998 1.62484 10.1998 3.4415V5.02484C10.1998 6.8415 11.1582 7.79984 12.9748 7.79984H14.5582C16.3748 7.79984 17.3332 6.8415 17.3332 5.02484V3.4415C17.3332 1.62484 16.3748 0.666504 14.5582 0.666504ZM14.5582 10.1915H12.9748C11.1582 10.1915 10.1998 11.1498 10.1998 12.9665V14.5498C10.1998 16.3665 11.1582 17.3248 12.9748 17.3248H14.5582C16.3748 17.3248 17.3332 16.3665 17.3332 14.5498V12.9665C17.3332 11.1498 16.3748 10.1915 14.5582 10.1915ZM5.03317 10.1915H3.44984C1.62484 10.1915 0.666504 11.1498 0.666504 12.9665V14.5498C0.666504 16.3748 1.62484 17.3332 3.4415 17.3332H5.02484C6.8415 17.3332 7.79984 16.3748 7.79984 14.5582V12.9748C7.80817 11.1498 6.84984 10.1915 5.03317 10.1915Z" fill="#808080"/>
</svg>
