<svg width="18" height="18" viewBox="0 0 18 18" fill="none" xmlns="http://www.w3.org/2000/svg">
<path d="M12.4915 0.666504H5.50817C2.47484 0.666504 0.666504 2.47484 0.666504 5.50817V12.4832C0.666504 15.5248 2.47484 17.3332 5.50817 17.3332H12.4832C15.5165 17.3332 17.3248 15.5248 17.3248 12.4915V5.50817C17.3332 2.47484 15.5248 0.666504 12.4915 0.666504ZM5.3915 3.58317C5.3915 3.2415 5.67484 2.95817 6.0165 2.95817C6.35817 2.95817 6.6415 3.2415 6.6415 3.58317V6.83317C6.6415 7.17484 6.35817 7.45817 6.0165 7.45817C5.67484 7.45817 5.3915 7.17484 5.3915 6.83317V3.58317ZM6.93567 12.6923C6.85123 12.7266 6.77851 12.7845 6.72631 12.8592C6.6741 12.9339 6.64465 13.0221 6.6415 13.1132V14.4165C6.6415 14.7582 6.35817 15.0415 6.0165 15.0415C5.67484 15.0415 5.3915 14.7582 5.3915 14.4165V13.1132C5.38826 13.0221 5.35876 12.934 5.30657 12.8593C5.25438 12.7846 5.18172 12.7267 5.09734 12.6923C4.69655 12.5153 4.35583 12.2257 4.11661 11.8587C3.87738 11.4916 3.74996 11.063 3.74984 10.6248C3.74984 9.37484 4.7665 8.34984 6.0165 8.34984C7.2665 8.34984 8.2915 9.3665 8.2915 10.6248C8.2915 11.5482 7.73317 12.339 6.93567 12.6923ZM12.6082 14.4165C12.6082 14.7582 12.3248 15.0415 11.9832 15.0415C11.6415 15.0415 11.3582 14.7582 11.3582 14.4165V11.1665C11.3582 10.8248 11.6415 10.5415 11.9832 10.5415C12.3248 10.5415 12.6082 10.8248 12.6082 11.1665V14.4165ZM11.9832 9.6415C10.7332 9.6415 9.70817 8.62484 9.70817 7.3665C9.70817 6.44317 10.2665 5.65234 11.064 5.299C11.1484 5.26477 11.2212 5.20681 11.2734 5.13212C11.3256 5.05744 11.355 4.96924 11.3582 4.87817V3.58317C11.3582 3.2415 11.6415 2.95817 11.9832 2.95817C12.3248 2.95817 12.6082 3.2415 12.6082 3.58317V4.8865C12.6082 5.07234 12.7332 5.2315 12.9023 5.30734C13.3031 5.48433 13.6438 5.77396 13.8831 6.14101C14.1223 6.50806 14.2497 6.93671 14.2498 7.37484C14.2498 8.62484 13.2332 9.6415 11.9832 9.6415Z" fill="#808080"/>
</svg>
