<svg width="20" height="18" viewBox="0 0 20 18" fill="none" xmlns="http://www.w3.org/2000/svg">
<path d="M5.8335 8.1667H4.16683V14H5.8335V8.1667ZM9.16683 8.1667H7.50016V14H9.16683V8.1667ZM12.5002 8.1667H10.8335V14H12.5002V8.1667ZM15.8335 8.1667H14.1668V14H15.8335V8.1667ZM19.1668 17.9584H0.833496C0.491829 17.9584 0.208496 17.675 0.208496 17.3334C0.208496 16.9917 0.491829 16.7084 0.833496 16.7084H19.1668C19.5085 16.7084 19.7918 16.9917 19.7918 17.3334C19.7918 17.675 19.5085 17.9584 19.1668 17.9584ZM17.8085 3.7917L10.3085 0.791699C10.1418 0.725033 9.8585 0.725033 9.69183 0.791699L2.19183 3.7917C1.90016 3.90837 1.66683 4.25003 1.66683 4.5667V7.33337C1.66683 7.7917 2.04183 8.1667 2.50016 8.1667H17.5002C17.9585 8.1667 18.3335 7.7917 18.3335 7.33337V4.5667C18.3335 4.25003 18.1002 3.90837 17.8085 3.7917ZM10.0002 6.08337C9.3085 6.08337 8.75016 5.52503 8.75016 4.83337C8.75016 4.1417 9.3085 3.58337 10.0002 3.58337C10.6918 3.58337 11.2502 4.1417 11.2502 4.83337C11.2502 5.52503 10.6918 6.08337 10.0002 6.08337Z" fill="#808080"/>
</svg>
