<svg width="24" height="24" viewBox="0 0 24 24" fill="none" xmlns="http://www.w3.org/2000/svg">
<path d="M19 13.3599H2C1.59 13.3599 1.25 13.0199 1.25 12.6099C1.25 12.1999 1.59 11.8599 2 11.8599H19C19.41 11.8599 19.75 12.1999 19.75 12.6099C19.75 13.0199 19.41 13.3599 19 13.3599Z" fill="#9747FF"/>
<path d="M15.22 21.7498H5.78C2.35 21.7498 1.25 20.6598 1.25 17.2698V10.2798C1.25 7.5898 1.86 5.9998 4.96 5.8198C5.22 5.8098 5.49 5.7998 5.78 5.7998H15.22C18.65 5.7998 19.75 6.8898 19.75 10.2798V17.4298C19.71 20.6998 18.61 21.7498 15.22 21.7498ZM5.78 7.2998C5.51 7.2998 5.26 7.3098 5.03 7.3198C3.24 7.4298 2.75 7.8098 2.75 10.2798V17.2698C2.75 19.8298 3.17 20.2498 5.78 20.2498H15.22C17.8 20.2498 18.22 19.8498 18.25 17.4198V10.2798C18.25 7.7198 17.83 7.2998 15.22 7.2998H5.78Z" fill="#9747FF"/>
<path d="M19.0001 18.18C18.8101 18.18 18.6201 18.11 18.4901 17.98C18.4146 17.9096 18.3544 17.8244 18.3132 17.7298C18.2719 17.6352 18.2504 17.5332 18.2501 17.43V10.28C18.2501 7.72 17.8301 7.3 15.2201 7.3H5.78008C5.51008 7.3 5.26008 7.31 5.03008 7.32C4.83008 7.33 4.63008 7.25 4.48008 7.11C4.40604 7.03903 4.3474 6.95356 4.30783 6.85894C4.26826 6.76431 4.2486 6.66255 4.25008 6.56C4.29008 3.3 5.39008 2.25 8.78008 2.25H18.2201C21.6501 2.25 22.7501 3.34 22.7501 6.73V13.72C22.7501 16.41 22.1401 18 19.0401 18.18H19.0001ZM5.78008 5.8H15.2201C18.6501 5.8 19.7501 6.89 19.7501 10.28V16.6C20.9101 16.39 21.2501 15.79 21.2501 13.72V6.73C21.2501 4.17 20.8301 3.75 18.2201 3.75H8.78008C6.50008 3.75 5.91008 4.06 5.78008 5.8ZM6.96208 18.559H5.24208C4.83208 18.559 4.49208 18.219 4.49208 17.809C4.49208 17.399 4.83208 17.059 5.24208 17.059H6.96208C7.16099 17.059 7.35176 17.138 7.49241 17.2787C7.63306 17.4193 7.71208 17.6101 7.71208 17.809C7.71208 18.0079 7.63306 18.1987 7.49241 18.3393C7.35176 18.48 7.16099 18.559 6.96208 18.559ZM12.5501 18.559H9.11008C8.70008 18.559 8.36008 18.219 8.36008 17.809C8.36008 17.399 8.70008 17.059 9.11008 17.059H12.5501C12.749 17.059 12.9398 17.138 13.0804 17.2787C13.2211 17.4193 13.3001 17.6101 13.3001 17.809C13.3001 18.0079 13.2211 18.1987 13.0804 18.3393C12.9398 18.48 12.749 18.559 12.5501 18.559Z" fill="#9747FF"/>
</svg>
