<svg width="24" height="24" viewBox="0 0 24 24" fill="none" xmlns="http://www.w3.org/2000/svg">
<path fill-rule="evenodd" clip-rule="evenodd" d="M14.0907 0.071526C13.6024 0.226267 13.5372 0.286747 9.30585 4.51035L5.1308 8.67774H3.48754C1.26543 8.67774 0.839503 8.80824 0.306221 9.65244C-0.0279662 10.1815 -0.00761241 9.72042 0.00625701 16.4479L0.0186854 22.4825L0.169448 22.7905C0.442994 23.349 0.861177 23.7211 1.4318 23.9137C1.70421 24.0056 1.83912 24.0066 12.0974 23.9947L22.487 23.9825L22.8154 23.8222C23.245 23.6124 23.6177 23.24 23.8276 22.8106L23.988 22.4825L23.9855 16.4122C23.984 13.0735 23.9773 10.2469 23.9705 10.1309C23.9638 10.0148 23.9725 9.6951 23.99 9.42024C24.0249 8.87226 23.9743 8.62481 23.7427 8.20901C23.5968 7.94723 16.2077 0.535689 15.8848 0.327307C15.4237 0.0297057 14.5954 -0.0883749 14.0907 0.071526ZM15.1273 1.59481C15.228 1.66952 15.9856 2.40782 16.8111 3.23546L18.3118 4.74027L16.3422 6.709L14.3726 8.67774H10.7841H7.19566L10.7136 5.1574C12.6484 3.22124 14.2948 1.59709 14.3721 1.54819C14.5911 1.40989 14.9044 1.42921 15.1273 1.59481ZM19.3332 7.70447L18.3601 8.67774H17.3983H16.4367L17.8899 7.22489L19.3432 5.77198L19.8248 6.25156L20.3063 6.7312L19.3332 7.70447ZM21.8188 8.24417L22.2745 8.7012L21.3517 8.68752L20.4289 8.67378L20.8707 8.23043C21.4007 7.69859 21.2729 7.69679 21.8188 8.24417ZM22.1501 10.1835C22.6317 10.4308 22.6081 10.0947 22.5935 16.5062C22.5792 22.758 22.6111 22.2361 22.2291 22.474L22.0649 22.5763H12.0034H1.94185L1.7777 22.474C1.39446 22.2354 1.42586 22.7833 1.42586 16.3336V10.6065L1.52397 10.4741C1.57794 10.4014 1.6919 10.2944 1.77722 10.2364L1.93224 10.1309H11.9899C19.333 10.1309 22.0753 10.1451 22.1501 10.1835ZM3.57022 12.018C2.93192 12.2223 2.8119 12.5496 2.81064 14.0887C2.80896 16.172 2.88845 16.2398 5.30473 16.2155C6.87348 16.1997 6.86976 16.2004 7.21127 15.8796C7.56167 15.5503 7.57067 15.5056 7.57067 14.0919V12.8262L7.43408 12.5799C7.28038 12.3027 7.07774 12.1284 6.79152 12.0275C6.55388 11.9437 3.82731 11.9356 3.57022 12.018ZM6.14002 14.0919V14.7716H5.17841H4.21686V14.0919V13.4122H5.17841H6.14002V14.0919ZM2.76273 19.7638V20.4903H4.40448H6.04618V19.7638V19.0372H4.40448H2.76273V19.7638ZM7.82867 19.7638V20.4903H9.47042H11.1121V19.7638V19.0372H9.47042H7.82867V19.7638ZM12.8946 19.7638V20.4903H14.5364H16.1781V19.7638V19.0372H14.5364H12.8946V19.7638ZM17.9605 19.7638V20.4903H19.6023H21.244V19.7638V19.0372H19.6023H17.9605V19.7638Z" fill="#808080"/>
</svg>
