<svg width="20" height="17" viewBox="0 0 20 17" fill="none" xmlns="http://www.w3.org/2000/svg">
<path d="M14.65 0.718994H5.35C2.4 0.718994 0 3.11899 0 6.06899V11.649C0 14.599 2.4 16.999 5.35 16.999H14.65C17.6 16.999 20 14.599 20 11.649V6.06899C20 3.11899 17.6 0.718994 14.65 0.718994ZM12.5 7.01899C12.5 6.46899 12.95 6.01899 13.5 6.01899C14.05 6.01899 14.5 6.46899 14.5 7.01899C14.5 7.56899 14.05 8.02899 13.5 8.02899C12.95 8.02899 12.5 7.58899 12.5 7.03899V7.01899ZM8.13 11.069C7.98 11.219 7.79 11.289 7.6 11.289C7.41 11.289 7.22 11.219 7.07 11.069L6.04 10.039L5.05 11.029C4.9 11.179 4.71 11.249 4.52 11.249C4.33 11.249 4.14 11.179 3.99 11.029C3.85052 10.8879 3.7723 10.6974 3.7723 10.499C3.7723 10.3006 3.85052 10.1101 3.99 9.96899L4.98 8.97899L4.02 8.01899C3.88052 7.87786 3.8023 7.68743 3.8023 7.48899C3.8023 7.29056 3.88052 7.10013 4.02 6.95899C4.31 6.66899 4.79 6.66899 5.08 6.95899L6.04 7.91899L7.03 6.92899C7.32 6.63899 7.8 6.63899 8.09 6.92899C8.38 7.21899 8.38 7.69899 8.09 7.98899L7.1 8.97899L8.13 10.009C8.42 10.299 8.42 10.779 8.13 11.069ZM11.54 9.99899C10.99 9.99899 10.53 9.54899 10.53 8.99899C10.53 8.44899 10.97 7.99899 11.52 7.99899H11.54C12.09 7.99899 12.54 8.44899 12.54 8.99899C12.54 9.54899 12.1 9.99899 11.54 9.99899ZM13.5 11.969C12.95 11.969 12.5 11.529 12.5 10.979V10.959C12.5 10.409 12.95 9.95899 13.5 9.95899C14.05 9.95899 14.5 10.409 14.5 10.959C14.5 11.509 14.06 11.969 13.5 11.969ZM15.48 9.99899C14.93 9.99899 14.47 9.54899 14.47 8.99899C14.47 8.44899 14.91 7.99899 15.46 7.99899H15.48C16.03 7.99899 16.48 8.44899 16.48 8.99899C16.48 9.54899 16.04 9.99899 15.48 9.99899Z" fill="#070012"/>
</svg>
