<svg width="21" height="20" viewBox="0 0 21 20" fill="none" xmlns="http://www.w3.org/2000/svg">
<path d="M18.8632 6.18626L11.9332 0.646255C10.8632 -0.213745 9.13319 -0.213745 8.07319 0.636256L1.14319 6.18626C0.363195 6.80626 -0.136805 8.11625 0.0331948 9.09626L1.36319 17.0563C1.60319 18.4763 2.96319 19.6263 4.40319 19.6263H15.6032C17.0332 19.6263 18.4032 18.4663 18.6432 17.0563L19.9732 9.09626C20.1332 8.11625 19.6332 6.80626 18.8632 6.18626ZM10.7132 15.0163C10.5132 15.2163 10.2632 15.3163 10.0032 15.3163C9.74319 15.3163 9.49319 15.2163 9.29319 15.0263C9.20049 14.9337 9.12694 14.8239 9.07676 14.7029C9.02658 14.5819 9.00075 14.4522 9.00075 14.3213C9.00075 14.1903 9.02658 14.0606 9.07676 13.9396C9.12694 13.8187 9.20049 13.7088 9.29319 13.6163C9.6832 13.2263 10.3232 13.2263 10.7132 13.6163C11.1032 13.9963 11.1032 14.6263 10.7132 15.0163ZM12.6632 12.7163C12.5252 12.8594 12.3361 12.9419 12.1373 12.9457C11.9386 12.9494 11.7465 12.8741 11.6032 12.7363C10.6332 11.8063 9.3732 11.8063 8.3932 12.7363C8.09319 13.0263 7.62319 13.0163 7.33319 12.7163C7.04319 12.4163 7.05319 11.9463 7.3532 11.6563C8.9032 10.1663 11.0732 10.1663 12.6332 11.6563C12.9432 11.9363 12.9532 12.4163 12.6632 12.7163ZM14.7832 10.5963C14.6332 10.7463 14.4432 10.8263 14.2432 10.8263C14.0532 10.8263 13.8632 10.7563 13.7232 10.6163C13.2663 10.1673 12.7395 9.79582 12.1632 9.51626C10.7632 8.84626 9.2332 8.84626 7.84319 9.51626C7.2832 9.78626 6.76319 10.1563 6.28319 10.6163C5.99319 10.9063 5.51319 10.9063 5.22319 10.6063C4.93319 10.3063 4.94319 9.83626 5.23319 9.54626C5.82319 8.96626 6.48319 8.50626 7.19319 8.16626C9.00319 7.29626 11.0032 7.29626 12.8032 8.16626C13.5132 8.50626 14.1732 8.96626 14.7632 9.54626C15.0632 9.82625 15.0732 10.3063 14.7832 10.5963Z" fill="#070012"/>
</svg>
