<svg width="18" height="18" viewBox="0 0 18 18" fill="none" xmlns="http://www.w3.org/2000/svg">
<path d="M5.374 16.4248C5.349 16.4248 5.31567 16.4415 5.29067 16.4415C3.674 15.6415 2.35734 14.3165 1.549 12.6998C1.549 12.6748 1.56567 12.6415 1.56567 12.6165C2.58234 12.9165 3.63234 13.1415 4.674 13.3165C4.85734 14.3665 5.074 15.4082 5.374 16.4248ZM16.4498 12.7082C15.6248 14.3665 14.2498 15.7082 12.5748 16.5165C12.8915 15.4582 13.1582 14.3915 13.3332 13.3165C14.3832 13.1415 15.4165 12.9165 16.4332 12.6165C16.4248 12.6498 16.4498 12.6832 16.4498 12.7082ZM16.5165 5.42484C15.4665 5.10817 14.4082 4.84984 13.3332 4.6665C13.1582 3.5915 12.8998 2.52484 12.5748 1.48317C14.2998 2.30817 15.6915 3.69984 16.5165 5.42484ZM5.37484 1.574C5.07484 2.59067 4.85817 3.624 4.68317 4.674C3.60817 4.84067 2.5415 5.10734 1.48317 5.424C2.2915 3.749 3.63317 2.374 5.2915 1.549C5.3165 1.549 5.34984 1.574 5.37484 1.574ZM11.9098 4.4915C9.9765 4.27484 8.0265 4.27484 6.09317 4.4915C6.3015 3.34984 6.56817 2.20817 6.94317 1.10817C6.95984 1.0415 6.9515 0.991504 6.95984 0.924837C7.61817 0.766504 8.29317 0.666504 9.0015 0.666504C9.7015 0.666504 10.3848 0.766504 11.0348 0.924837C11.0432 0.991504 11.0432 1.0415 11.0598 1.10817C11.4348 2.2165 11.7015 3.34984 11.9098 4.4915ZM4.4915 11.9098C3.3415 11.7015 2.20817 11.4348 1.10817 11.0598C1.0415 11.0432 0.991504 11.0515 0.924837 11.0432C0.766504 10.3848 0.666504 9.70984 0.666504 9.0015C0.666504 8.3015 0.766504 7.61817 0.924837 6.96817C0.991504 6.95984 1.0415 6.95984 1.10817 6.94317C2.2165 6.5765 3.3415 6.3015 4.4915 6.09317C4.28317 8.0265 4.28317 9.9765 4.4915 11.9098ZM17.3332 9.0015C17.3332 9.70984 17.2332 10.3848 17.0748 11.0432C17.0082 11.0515 16.9582 11.0432 16.8915 11.0598C15.7832 11.4265 14.6498 11.7015 13.5082 11.9098C13.7248 9.9765 13.7248 8.0265 13.5082 6.09317C14.6498 6.3015 15.7915 6.56817 16.8915 6.94317C16.9582 6.95984 17.0082 6.96817 17.0748 6.96817C17.2332 7.6265 17.3332 8.3015 17.3332 9.0015ZM11.9098 13.5082C11.7015 14.6582 11.4348 15.7915 11.0598 16.8915C11.0432 16.9582 11.0432 17.0082 11.0348 17.0748C10.3848 17.2332 9.7015 17.3332 9.0015 17.3332C8.29317 17.3332 7.61817 17.2332 6.95984 17.0748C6.9515 17.0082 6.95984 16.9582 6.94317 16.8915C6.5808 15.7851 6.29676 14.6545 6.09317 13.5082C7.05984 13.6165 8.0265 13.6915 9.0015 13.6915C9.9765 13.6915 10.9515 13.6165 11.9098 13.5082ZM12.1357 12.1357C10.0534 12.3986 7.94629 12.3986 5.864 12.1357C5.60108 10.0534 5.60108 7.94629 5.864 5.864C7.94629 5.60108 10.0534 5.60108 12.1357 5.864C12.3986 7.94629 12.3986 10.0534 12.1357 12.1357Z" fill="#808080"/>
</svg>
