<svg width="18" height="18" viewBox="0 0 18 18" fill="none" xmlns="http://www.w3.org/2000/svg">
<path d="M0 3.25C0 1.45507 1.45507 0 3.25 0H14.75C16.5449 0 18 1.45507 18 3.25V14.75C18 16.5449 16.5449 18 14.75 18H3.25C1.45507 18 0 16.5449 0 14.75V3.25ZM3.25 1.5C2.2835 1.5 1.5 2.2835 1.5 3.25V8.25H8.25V1.5H3.25ZM8.25 9.75H1.5V14.75C1.5 15.7165 2.2835 16.5 3.25 16.5H8.25V9.75ZM9.75 9.75V16.5H14.75C15.7165 16.5 16.5 15.7165 16.5 14.75V9.75H9.75ZM16.5 8.25V3.25C16.5 2.2835 15.7165 1.5 14.75 1.5H9.75V8.25H16.5Z" fill="#7000FF"/>
</svg>
