<svg width="24" height="24" viewBox="0 0 24 24" fill="none" xmlns="http://www.w3.org/2000/svg">
<path d="M17 21.75H7C2.59 21.75 1.25 20.41 1.25 16V8C1.25 3.59 2.59 2.25 7 2.25H17C21.41 2.25 22.75 3.59 22.75 8V16C22.75 20.41 21.41 21.75 17 21.75ZM7 3.75C3.42 3.75 2.75 4.43 2.75 8V16C2.75 19.57 3.42 20.25 7 20.25H17C20.58 20.25 21.25 19.57 21.25 16V8C21.25 4.43 20.58 3.75 17 3.75H7Z" fill="#9747FF"/>
<path d="M19 8.74988H14C13.59 8.74988 13.25 8.40988 13.25 7.99988C13.25 7.58988 13.59 7.24988 14 7.24988H19C19.41 7.24988 19.75 7.58988 19.75 7.99988C19.75 8.40988 19.41 8.74988 19 8.74988ZM19 12.7499H15C14.59 12.7499 14.25 12.4099 14.25 11.9999C14.25 11.5899 14.59 11.2499 15 11.2499H19C19.41 11.2499 19.75 11.5899 19.75 11.9999C19.75 12.4099 19.41 12.7499 19 12.7499ZM19 16.7499H17C16.59 16.7499 16.25 16.4099 16.25 15.9999C16.25 15.5899 16.59 15.2499 17 15.2499H19C19.41 15.2499 19.75 15.5899 19.75 15.9999C19.75 16.4099 19.41 16.7499 19 16.7499ZM8.49998 12.0419C7.08998 12.0419 5.93998 10.8919 5.93998 9.48188C5.93998 8.07188 7.08998 6.92188 8.49998 6.92188C9.90998 6.92188 11.06 8.07188 11.06 9.48188C11.06 10.8919 9.90998 12.0419 8.49998 12.0419ZM8.49998 8.42188C7.91998 8.42188 7.43998 8.90188 7.43998 9.48188C7.43998 10.0619 7.91998 10.5419 8.49998 10.5419C9.07998 10.5419 9.55998 10.0619 9.55998 9.48188C9.55998 8.90188 9.07998 8.42188 8.49998 8.42188ZM12 17.0819C11.62 17.0819 11.29 16.7919 11.25 16.4019C11.1945 15.8738 10.958 15.3812 10.5807 15.0076C10.2035 14.6339 9.70856 14.4023 9.17998 14.3519C8.72085 14.3119 8.25911 14.3119 7.79998 14.3519C6.70998 14.4519 5.83998 15.3119 5.72998 16.4019C5.68998 16.8119 5.31998 17.1219 4.90998 17.0719C4.71253 17.0517 4.53113 16.954 4.40555 16.8003C4.27996 16.6466 4.22042 16.4494 4.23998 16.2519C4.41998 14.4519 5.84998 13.0219 7.65998 12.8619C8.20998 12.8119 8.76998 12.8119 9.31998 12.8619C11.12 13.0319 12.56 14.4619 12.74 16.2519C12.7595 16.4494 12.7 16.6466 12.5744 16.8003C12.4488 16.954 12.2674 17.0517 12.07 17.0719C12.05 17.0819 12.02 17.0819 12 17.0819Z" fill="#9747FF"/>
</svg>
