<svg width="18" height="18" viewBox="0 0 18 18" fill="none" xmlns="http://www.w3.org/2000/svg">
<path d="M12.4915 0.666504H5.50817C2.47484 0.666504 0.666504 2.47484 0.666504 5.50817V12.4832C0.666504 15.5248 2.47484 17.3332 5.50817 17.3332H12.4832C15.5165 17.3332 17.3248 15.5248 17.3248 12.4915V5.50817C17.3332 2.47484 15.5248 0.666504 12.4915 0.666504ZM8.58317 13.3748C8.58317 13.6748 8.28317 13.8748 8.00817 13.7582C6.99984 13.3248 5.68317 12.9248 4.7665 12.8082L4.60817 12.7915C4.09984 12.7248 3.68317 12.2498 3.68317 11.7332V5.3165C3.68317 4.67484 4.19984 4.19984 4.83317 4.24984C5.87484 4.33317 7.4165 4.83317 8.38317 5.38317C8.5165 5.45817 8.58317 5.59984 8.58317 5.7415V13.3748ZM14.3165 11.7248C14.3165 12.2415 13.8998 12.7165 13.3915 12.7832L13.2165 12.7998C12.3082 12.9248 10.9998 13.3165 9.9915 13.7415C9.7165 13.8582 9.4165 13.6582 9.4165 13.3582V5.73317C9.41547 5.65905 9.43423 5.58599 9.47086 5.52153C9.50748 5.45708 9.56063 5.40356 9.62484 5.3665C10.5915 4.82484 12.0998 4.3415 13.1248 4.24984H13.1582C13.7998 4.24984 14.3165 4.7665 14.3165 5.40817V11.7248Z" fill="#808080"/>
</svg>
