<svg width="18" height="18" viewBox="0 0 18 18" fill="none" xmlns="http://www.w3.org/2000/svg">
<path d="M16.0168 0.00191035C16.0168 0.00191035 2.01247 -0.00238794 2.01649 0.00191035C0.725649 0.00191035 0 0.668146 0 2.02898V16.0603C0 17.3335 0.652453 18 1.94214 18H16.057C17.3467 18 18 17.3667 18 16.0603V2.02898C18.0003 0.701099 17.347 0.00191035 16.0168 0.00191035ZM8.65067 6.49376C8.65067 6.93391 8.24909 7.40529 7.72782 7.40529V14.837C7.72782 15.8921 6.28743 15.8921 6.28743 14.837V7.40529C5.78022 7.40529 5.33846 7.01529 5.33846 6.43101V2.34104C5.33846 1.98514 5.8537 1.97139 5.8537 2.35508V5.37821H6.28513V2.327C6.28513 2.00004 6.78143 1.97912 6.78143 2.34104V5.37821H7.22721V2.3313C7.22721 1.98944 7.70887 1.97569 7.70887 2.34477V5.37821H8.14748V2.3313C8.14748 1.99317 8.65067 1.9797 8.65067 2.34477V6.49376ZM12.493 14.8336C12.493 15.8655 11.0498 15.85 11.0498 14.8336V10.2539H10.2814V3.29154C10.2814 1.67079 12.4933 1.67079 12.4933 3.29154V14.8336H12.493Z" fill="#070012"/>
</svg>
