<svg width="20" height="20" viewBox="0 0 20 20" fill="none" xmlns="http://www.w3.org/2000/svg">
<path d="M19.9788 0.608117C19.8766 0.180289 19.4064 -0.110818 18.9801 0.0404965C18.9801 0.0404965 0.510841 6.55776 0.507768 6.56006C0.224288 6.66529 0.0160959 6.93566 0.000731178 7.2452C-0.0130971 7.54245 0.170512 7.85199 0.4417 7.97796L7.59554 11.3169C7.59554 11.3169 11.081 7.83202 11.0872 7.82588C11.7786 7.1346 12.8826 8.20378 12.1735 8.91196L8.68183 12.4029C8.68183 12.4029 12.0167 19.5477 12.0229 19.5593C12.1589 19.8204 12.4247 19.9863 12.7166 19.9994C13.0339 20.014 13.3274 19.7713 13.4411 19.4871C13.4411 19.4871 19.9557 1.0321 19.9596 1.02058C20.008 0.887702 20.011 0.744069 19.9788 0.608117Z" fill="white"/>
</svg>
