<svg width="20" height="20" viewBox="0 0 20 20" fill="none" xmlns="http://www.w3.org/2000/svg">
<path d="M9.1665 13.4585V15.7085C9.1665 17.5835 8.4165 18.3335 6.5415 18.3335H4.2915C2.4165 18.3335 1.6665 17.5835 1.6665 15.7085V13.4585C1.6665 11.5835 2.4165 10.8335 4.2915 10.8335H6.5415C8.4165 10.8335 9.1665 11.5835 9.1665 13.4585Z" fill="#808080"/>
<path d="M13.7333 1.6665H7.1C4.55833 1.6665 2.5 3.72484 2.5 6.2665V8.74984C2.5 9.20817 2.875 9.58317 3.33333 9.58317H7.08333C8.925 9.58317 10.4167 11.0748 10.4167 12.9165V16.6665C10.4167 17.1248 10.7917 17.4998 11.25 17.4998H13.7333C16.6083 17.4998 18.3333 15.7832 18.3333 12.8998V6.2665C18.3333 3.72484 16.275 1.6665 13.7333 1.6665ZM15.6333 8.32484C15.6333 8.6665 15.35 8.94984 15.0083 8.94984C14.6667 8.94984 14.3833 8.6665 14.3833 8.32484V6.4915L11.275 9.60817C11.15 9.73317 10.9917 9.7915 10.8333 9.7915C10.675 9.7915 10.5167 9.73317 10.3917 9.60817C10.2754 9.49056 10.2102 9.33186 10.2102 9.1665C10.2102 9.00114 10.2754 8.84245 10.3917 8.72484L13.5 5.59984H11.6667C11.3167 5.59984 11.0417 5.32484 11.0417 4.97484C11.0417 4.63317 11.3167 4.34984 11.6667 4.34984H15.0083C15.0833 4.34984 15.1583 4.37484 15.225 4.39984C15.25 4.40817 15.2667 4.4165 15.2833 4.42484C15.3333 4.44984 15.375 4.47484 15.4167 4.5165C15.4333 4.52484 15.45 4.5415 15.4667 4.55817C15.5083 4.60817 15.5417 4.65817 15.575 4.7165C15.575 4.72484 15.5833 4.73317 15.5833 4.7415C15.6167 4.80817 15.625 4.88317 15.625 4.95817C15.6333 4.9665 15.6333 4.9665 15.6333 4.97484V8.32484Z" fill="#808080"/>
</svg>
