<svg width="16" height="18" viewBox="0 0 16 18" fill="none" xmlns="http://www.w3.org/2000/svg">
<path d="M15.4252 8.26711V4.60878C15.4252 3.92545 14.9085 3.15045 14.2669 2.89211L9.62519 0.992114C8.58067 0.567082 7.41139 0.567082 6.36686 0.992114L1.7252 2.89211C1.09186 3.15045 0.575195 3.92545 0.575195 4.60878V8.26711C0.575195 12.3421 3.53353 16.1588 7.57519 17.2754C7.85019 17.3504 8.1502 17.3504 8.4252 17.2754C12.4669 16.1588 15.4252 12.3421 15.4252 8.26711ZM8.62519 9.72545V11.9171C8.62519 12.2588 8.34186 12.5421 8.0002 12.5421C7.65853 12.5421 7.3752 12.2588 7.3752 11.9171V9.72545C6.95409 9.59343 6.58587 9.33095 6.32372 8.97594C6.06158 8.62092 5.9191 8.19175 5.91686 7.75045C5.91686 7.19791 6.13635 6.66801 6.52706 6.27731C6.91776 5.88661 7.44766 5.66711 8.0002 5.66711C8.55273 5.66711 9.08263 5.88661 9.47333 6.27731C9.86403 6.66801 10.0835 7.19791 10.0835 7.75045C10.0835 8.68378 9.46686 9.45878 8.62519 9.72545Z" fill="#808080"/>
</svg>
