<svg width="20" height="19" viewBox="0 0 20 19" fill="none" xmlns="http://www.w3.org/2000/svg">
<path d="M3.7125 0.6875C3.82986 0.550293 3.97555 0.440138 4.13954 0.364614C4.30354 0.289089 4.48195 0.249988 4.6625 0.25H15.3375C15.5181 0.249988 15.6965 0.289089 15.8605 0.364614C16.0245 0.440138 16.1701 0.550293 16.2875 0.6875L19.5487 4.4925C19.8399 4.83229 20 5.26502 20 5.7125V6.03125C20.0001 6.64997 19.8068 7.25325 19.4473 7.75678C19.0877 8.2603 18.5798 8.63891 17.9946 8.83968C17.4094 9.04045 16.776 9.05336 16.1831 8.87659C15.5901 8.69982 15.0673 8.34221 14.6875 7.85375C14.4102 8.21096 14.0548 8.49997 13.6485 8.69865C13.2423 8.89733 12.796 9.00041 12.3438 9C11.8915 9.00051 11.4452 8.89747 11.0389 8.69878C10.6326 8.50009 10.2773 8.21103 10 7.85375C9.72274 8.21103 9.36736 8.50009 8.9611 8.69878C8.55485 8.89747 8.10849 9.00051 7.65625 9C7.20401 9.00051 6.75765 8.89747 6.3514 8.69878C5.94514 8.50009 5.58976 8.21103 5.3125 7.85375C4.93274 8.34221 4.40985 8.69982 3.81692 8.87659C3.22399 9.05336 2.59065 9.04045 2.00541 8.83968C1.42017 8.63891 0.912278 8.2603 0.552728 7.75678C0.193177 7.25325 -6.82482e-05 6.64997 1.80807e-08 6.03125V5.7125C1.57594e-05 5.26502 0.160071 4.83229 0.45125 4.4925L3.71375 0.68625L3.7125 0.6875ZM5.9375 6.03125C5.9375 6.48709 6.11858 6.92426 6.44091 7.24659C6.76324 7.56892 7.20041 7.75 7.65625 7.75C8.11209 7.75 8.54926 7.56892 8.87159 7.24659C9.19392 6.92426 9.375 6.48709 9.375 6.03125C9.375 5.86549 9.44085 5.70652 9.55806 5.58931C9.67527 5.4721 9.83424 5.40625 10 5.40625C10.1658 5.40625 10.3247 5.4721 10.4419 5.58931C10.5592 5.70652 10.625 5.86549 10.625 6.03125C10.625 6.48709 10.8061 6.92426 11.1284 7.24659C11.4507 7.56892 11.8879 7.75 12.3438 7.75C12.7996 7.75 13.2368 7.56892 13.5591 7.24659C13.8814 6.92426 14.0625 6.48709 14.0625 6.03125C14.0625 5.86549 14.1283 5.70652 14.2456 5.58931C14.3628 5.4721 14.5217 5.40625 14.6875 5.40625C14.8533 5.40625 15.0122 5.4721 15.1294 5.58931C15.2467 5.70652 15.3125 5.86549 15.3125 6.03125C15.3125 6.48709 15.4936 6.92426 15.8159 7.24659C16.1382 7.56892 16.5754 7.75 17.0312 7.75C17.4871 7.75 17.9243 7.56892 18.2466 7.24659C18.5689 6.92426 18.75 6.48709 18.75 6.03125V5.7125C18.75 5.56353 18.6968 5.41946 18.6 5.30625L15.3375 1.5H4.6625L1.4 5.30625C1.30318 5.41946 1.24999 5.56353 1.25 5.7125V6.03125C1.25 6.48709 1.43108 6.92426 1.75341 7.24659C2.07574 7.56892 2.51291 7.75 2.96875 7.75C3.42459 7.75 3.86176 7.56892 4.18409 7.24659C4.50642 6.92426 4.6875 6.48709 4.6875 6.03125C4.6875 5.86549 4.75335 5.70652 4.87056 5.58931C4.98777 5.4721 5.14674 5.40625 5.3125 5.40625C5.47826 5.40625 5.63723 5.4721 5.75444 5.58931C5.87165 5.70652 5.9375 5.86549 5.9375 6.03125ZM1.875 9.625C2.04076 9.625 2.19973 9.69085 2.31694 9.80806C2.43415 9.92527 2.5 10.0842 2.5 10.25V17.75H3.75V11.5C3.75 11.1685 3.8817 10.8505 4.11612 10.6161C4.35054 10.3817 4.66848 10.25 5 10.25H8.75C9.08152 10.25 9.39946 10.3817 9.63388 10.6161C9.8683 10.8505 10 11.1685 10 11.5V17.75H17.5V10.25C17.5 10.0842 17.5658 9.92527 17.6831 9.80806C17.8003 9.69085 17.9592 9.625 18.125 9.625C18.2908 9.625 18.4497 9.69085 18.5669 9.80806C18.6842 9.92527 18.75 10.0842 18.75 10.25V17.75H19.375C19.5408 17.75 19.6997 17.8158 19.8169 17.9331C19.9342 18.0503 20 18.2092 20 18.375C20 18.5408 19.9342 18.6997 19.8169 18.8169C19.6997 18.9342 19.5408 19 19.375 19H0.625C0.45924 19 0.300269 18.9342 0.183058 18.8169C0.0658481 18.6997 1.80807e-08 18.5408 1.80807e-08 18.375C1.80807e-08 18.2092 0.0658481 18.0503 0.183058 17.9331C0.300269 17.8158 0.45924 17.75 0.625 17.75H1.25V10.25C1.25 10.0842 1.31585 9.92527 1.43306 9.80806C1.55027 9.69085 1.70924 9.625 1.875 9.625ZM5 17.75H8.75V11.5H5V17.75ZM11.25 11.5C11.25 11.1685 11.3817 10.8505 11.6161 10.6161C11.8505 10.3817 12.1685 10.25 12.5 10.25H15C15.3315 10.25 15.6495 10.3817 15.8839 10.6161C16.1183 10.8505 16.25 11.1685 16.25 11.5V15.25C16.25 15.5815 16.1183 15.8995 15.8839 16.1339C15.6495 16.3683 15.3315 16.5 15 16.5H12.5C12.1685 16.5 11.8505 16.3683 11.6161 16.1339C11.3817 15.8995 11.25 15.5815 11.25 15.25V11.5ZM15 11.5H12.5V15.25H15V11.5Z" fill="#070012"/>
</svg>
