<svg width="18" height="18" viewBox="0 0 18 18" fill="none" xmlns="http://www.w3.org/2000/svg">
<path d="M16.9409 12.2748C16.8076 12.0498 16.4326 11.6998 15.4993 11.8665C14.9826 11.9581 14.4576 11.9998 13.9326 11.9748C12.9963 11.9324 12.0779 11.7025 11.232 11.2988C10.386 10.8952 9.62966 10.326 9.0076 9.62481C7.92427 8.41648 7.2576 6.84148 7.24927 5.14148C7.24927 4.19148 7.4326 3.27481 7.8076 2.40815C8.17427 1.56648 7.91594 1.12481 7.7326 0.941479C7.54094 0.749812 7.09094 0.483146 6.2076 0.849812C2.79927 2.28315 0.690935 5.69981 0.940935 9.35815C1.19094 12.7998 3.6076 15.7415 6.8076 16.8498C7.58339 17.1205 8.39495 17.2749 9.21593 17.3081C9.34927 17.3165 9.4826 17.3248 9.61594 17.3248C12.4076 17.3248 15.0243 16.0081 16.6743 13.7665C17.2326 12.9915 17.0826 12.4998 16.9409 12.2748Z" fill="#808080"/>
</svg>
