<svg width="22" height="21" viewBox="0 0 22 21" fill="none" xmlns="http://www.w3.org/2000/svg">
<path d="M21 19.249H20V7.97899C20 7.35899 19.72 6.77899 19.23 6.39899L12.23 0.958994C11.51 0.388994 10.49 0.388994 9.77 0.958994L2.77 6.39899C2.28 6.77899 2 7.35899 2 7.96899L1.95 19.249H1C0.801088 19.249 0.610322 19.328 0.46967 19.4687C0.329018 19.6093 0.25 19.8001 0.25 19.999C0.25 20.1979 0.329018 20.3887 0.46967 20.5293C0.610322 20.67 0.801088 20.749 1 20.749H21C21.1989 20.749 21.3897 20.67 21.5303 20.5293C21.671 20.3887 21.75 20.1979 21.75 19.999C21.75 19.8001 21.671 19.6093 21.5303 19.4687C21.3897 19.328 21.1989 19.249 21 19.249ZM9.5 4.74899H12.5C12.91 4.74899 13.25 5.08899 13.25 5.49899C13.25 5.90899 12.91 6.24899 12.5 6.24899H9.5C9.09 6.24899 8.75 5.90899 8.75 5.49899C8.75 5.08899 9.09 4.74899 9.5 4.74899ZM16 19.249H6V10.499C6 9.66899 6.67 8.99899 7.5 8.99899H14.5C15.33 8.99899 16 9.66899 16 10.499V19.249Z" fill="#070012"/>
</svg>
