<svg width="18" height="18" viewBox="0 0 18 18" fill="none" xmlns="http://www.w3.org/2000/svg">
<path d="M16.9667 7.94899L15.8334 6.63232C15.6167 6.38232 15.4417 5.91566 15.4417 5.58232V4.16566C15.4417 3.28232 14.7167 2.55732 13.8334 2.55732H12.4167C12.0917 2.55732 11.6167 2.38232 11.3667 2.16566L10.0501 1.03232C9.47507 0.540658 8.5334 0.540658 7.95007 1.03232L6.64173 2.17399C6.39173 2.38232 5.91673 2.55732 5.59173 2.55732H4.15006C3.26673 2.55732 2.54173 3.28232 2.54173 4.16566V5.59066C2.54173 5.91566 2.36673 6.38232 2.1584 6.63232L1.0334 7.95732C0.550065 8.53232 0.550065 9.46566 1.0334 10.0407L2.1584 11.3657C2.36673 11.6157 2.54173 12.0823 2.54173 12.4073V13.8323C2.54173 14.7157 3.26673 15.4407 4.15006 15.4407H5.59173C5.91673 15.4407 6.39173 15.6157 6.64173 15.8323L7.9584 16.9657C8.5334 17.4573 9.47507 17.4573 10.0584 16.9657L11.3751 15.8323C11.6251 15.6157 12.0917 15.4407 12.4251 15.4407H13.8417C14.7251 15.4407 15.4501 14.7157 15.4501 13.8323V12.4157C15.4501 12.0907 15.6251 11.6157 15.8417 11.3657L16.9751 10.049C17.4584 9.47399 17.4584 8.52399 16.9667 7.94899ZM12.4667 7.42399L8.44173 11.449C8.32454 11.566 8.16569 11.6318 8.00007 11.6318C7.83444 11.6318 7.67559 11.566 7.5584 11.449L5.54173 9.43232C5.4255 9.31471 5.36031 9.15602 5.36031 8.99066C5.36031 8.8253 5.4255 8.66661 5.54173 8.54899C5.7834 8.30732 6.1834 8.30732 6.42507 8.54899L8.00007 10.124L11.5834 6.54066C11.8251 6.29899 12.2251 6.29899 12.4667 6.54066C12.7084 6.78232 12.7084 7.18232 12.4667 7.42399Z" fill="#808080"/>
</svg>
